<svg width="138" height="145" viewBox="0 0 138 145" fill="none" xmlns="http://www.w3.org/2000/svg">
<path d="M8.7091 124.703H4.32741C3.48729 124.703 2.89059 124.525 2.53435 124.168C2.17812 123.811 2 123.294 2 122.62C2 122.126 2.07422 121.675 2.21968 121.261C2.36514 120.851 2.48389 120.572 2.57591 120.426H17.6654C18.5056 120.426 19.1023 120.605 19.4585 120.961C19.8147 121.318 19.9928 121.835 19.9928 122.51C19.9928 123.003 19.9186 123.455 19.7732 123.868C19.6277 124.278 19.509 124.558 19.4169 124.703H13.2808V139.234H8.70613V124.703H8.7091Z" fill="black"/>
<path d="M21.6374 120.973C21.6374 120.26 21.8482 119.757 22.2668 119.466C22.6853 119.175 23.2434 119.026 23.9381 119.026C24.4309 119.026 24.8732 119.086 25.2651 119.205C25.6569 119.324 25.9093 119.401 26.0191 119.436V126.07C26.3664 125.761 26.8414 125.476 27.4441 125.22C28.0467 124.965 28.8215 124.837 29.7715 124.837C30.5938 124.837 31.3508 124.953 32.0454 125.179C32.7401 125.408 33.3457 125.764 33.8652 126.249C34.3847 126.733 34.7914 127.345 35.0823 128.085C35.3733 128.826 35.5217 129.699 35.5217 130.704V139.231H31.1133V131.607C31.1133 130.674 30.9084 130 30.4958 129.577C30.0861 129.158 29.4687 128.947 28.6463 128.947C27.824 128.947 27.1858 129.194 26.7286 129.687C26.2714 130.181 26.0429 130.948 26.0429 131.991V139.228H21.6374V120.973Z" fill="black"/>
<path d="M38.425 121.496C38.425 120.801 38.6565 120.218 39.1226 119.743C39.5887 119.267 40.1676 119.029 40.8622 119.029C41.5569 119.029 42.1387 119.267 42.6137 119.743C43.0887 120.218 43.3262 120.804 43.3262 121.496C43.3262 122.192 43.0887 122.771 42.6137 123.238C42.1387 123.704 41.5539 123.936 40.8622 123.936C40.1676 123.936 39.5887 123.704 39.1226 123.238C38.6565 122.771 38.425 122.192 38.425 121.496ZM38.6714 127.2C38.6714 126.486 38.8822 125.984 39.3007 125.693C39.7193 125.402 40.2774 125.253 40.9721 125.253C41.4649 125.253 41.9131 125.312 42.3139 125.431C42.7147 125.55 42.9699 125.627 43.0798 125.663V139.237H38.6714V127.2Z" fill="black"/>
<path d="M45.817 130.763C45.817 129.812 45.998 128.968 46.3632 128.228C46.7283 127.488 47.23 126.87 47.8683 126.376C48.5065 125.883 49.2457 125.509 50.0858 125.253C50.926 124.997 51.8284 124.87 52.7962 124.87C53.7462 124.87 54.6457 124.997 55.4947 125.253C56.3437 125.509 57.0829 125.883 57.7122 126.376C58.3416 126.87 58.8403 127.488 59.2055 128.228C59.5706 128.968 59.7547 129.815 59.7547 130.763V139.237H55.3463V131.777C55.3463 130.808 55.1266 130.092 54.6902 129.625C54.2508 129.158 53.6215 128.927 52.7992 128.927C51.0833 128.927 50.2254 129.878 50.2254 131.777V139.234H45.817V130.763Z" fill="black"/>
<path d="M64.632 140.607C64.6855 140.643 64.8339 140.708 65.0714 140.8C65.3089 140.892 65.6146 140.988 65.9887 141.089C66.3627 141.19 66.8021 141.282 67.3038 141.362C67.8055 141.445 68.3487 141.487 68.9336 141.487C69.5184 141.487 70.0616 141.421 70.5633 141.294C71.065 141.166 71.4955 140.952 71.8517 140.649C72.208 140.346 72.487 139.962 72.6859 139.496C72.8878 139.029 72.9857 138.449 72.9857 137.754V137.454C72.8937 137.546 72.7423 137.674 72.5345 137.837C72.3237 138.001 72.0506 138.167 71.7122 138.33C71.3738 138.494 70.976 138.643 70.5218 138.77C70.0646 138.898 69.554 138.963 68.987 138.963C68.0014 138.963 67.093 138.812 66.2618 138.512C65.4306 138.212 64.7151 137.766 64.1125 137.183C63.5099 136.598 63.0438 135.881 62.7172 135.031C62.3877 134.181 62.2245 133.218 62.2245 132.139C62.2245 131.061 62.4174 130.08 62.8004 129.191C63.1833 128.305 63.7117 127.542 64.3886 126.902C65.0625 126.263 65.8729 125.764 66.811 125.407C67.752 125.051 68.7881 124.872 69.9191 124.872C71.1778 124.872 72.3415 125.11 73.4102 125.586C74.4789 126.061 75.3577 126.757 76.0523 127.669C76.4917 128.255 76.8242 128.941 77.0527 129.726C77.2813 130.514 77.3941 131.509 77.3941 132.716V136.803C77.3941 138.229 77.1923 139.457 76.7915 140.491C76.3907 141.523 75.8326 142.373 75.1202 143.041C74.4077 143.707 73.5646 144.2 72.5879 144.521C71.6113 144.842 70.5485 145 69.3967 145C68.5922 145 67.853 144.949 67.1791 144.848C66.5022 144.747 65.9056 144.628 65.3861 144.492C64.8665 144.355 64.4361 144.218 64.0977 144.082C63.7592 143.945 63.5366 143.838 63.4268 143.767L64.632 140.607ZM66.7397 132.133C66.7397 133.177 67.0307 133.952 67.6155 134.464C68.2003 134.975 68.9484 135.23 69.8598 135.23C70.7533 135.23 71.4984 134.948 72.0922 134.38C72.6859 133.813 72.9828 133.064 72.9828 132.131C72.9828 131.197 72.6859 130.436 72.0922 129.842C71.4984 129.248 70.7533 128.95 69.8598 128.95C69.4026 128.95 68.984 129.034 68.6011 129.197C68.2181 129.36 67.8886 129.589 67.6155 129.884C67.3424 130.175 67.1257 130.514 66.9713 130.897C66.8169 131.283 66.7397 131.697 66.7397 132.133Z" fill="black"/>
<path d="M80.817 134.957C80.9624 135.067 81.2059 135.201 81.5443 135.355C81.8827 135.51 82.2835 135.655 82.7496 135.795C83.2156 135.932 83.7441 136.051 84.3378 136.152C84.9315 136.253 85.5579 136.303 86.2139 136.303C86.962 136.303 87.529 136.235 87.912 136.098C88.2949 135.962 88.4879 135.718 88.4879 135.37C88.4879 135.005 88.3276 134.752 88.007 134.615C87.6864 134.479 87.1906 134.366 86.5138 134.273L85.0888 134.11C84.3764 134.018 83.6906 133.887 83.0345 133.712C82.3785 133.539 81.7966 133.284 81.2949 132.945C80.7932 132.606 80.3954 132.172 80.1045 131.643C79.8136 131.114 79.6652 130.445 79.6652 129.643C79.6652 128.968 79.7898 128.341 80.0362 127.764C80.2826 127.188 80.6715 126.686 81.1999 126.258C81.7284 125.83 82.4052 125.491 83.2275 125.244C84.0498 124.997 85.0265 124.872 86.1575 124.872C87.3094 124.872 88.2979 124.947 89.1291 125.092C89.9603 125.238 90.6758 125.467 91.2784 125.779C91.6258 125.963 91.9048 126.186 92.1126 126.451C92.3234 126.715 92.4273 127.039 92.4273 127.423C92.4273 127.714 92.3679 127.975 92.2492 128.204C92.1304 128.433 91.9939 128.629 91.8395 128.793C91.6851 128.956 91.5397 129.084 91.4001 129.176C91.2636 129.268 91.1775 129.322 91.1389 129.34C91.0855 129.286 90.9341 129.185 90.6877 129.039C90.4413 128.894 90.1117 128.751 89.7021 128.614C89.2924 128.478 88.7996 128.353 88.2237 128.243C87.6478 128.133 86.9947 128.079 86.2644 128.079C85.4421 128.079 84.8721 128.175 84.5515 128.368C84.2309 128.561 84.0736 128.811 84.0736 129.123C84.0736 129.435 84.219 129.652 84.5129 129.78C84.8038 129.907 85.2432 130.017 85.828 130.109L88.3217 130.466C88.9421 130.558 89.5418 130.689 90.1147 130.864C90.6906 131.037 91.2012 131.289 91.6495 131.619C92.0978 131.949 92.454 132.368 92.7182 132.879C92.9824 133.391 93.116 134.012 93.116 134.743C93.116 136.28 92.5312 137.474 91.3645 138.333C90.1949 139.192 88.5799 139.623 86.5167 139.623C85.4391 139.623 84.4862 139.549 83.655 139.403C82.8238 139.258 82.1083 139.088 81.5057 138.895C80.9031 138.702 80.4132 138.503 80.0392 138.292C79.6652 138.081 79.4039 137.92 79.2585 137.813L80.817 134.957Z" fill="black"/>
<path d="M95.6601 120.973C95.6601 120.26 95.8709 119.757 96.2894 119.466C96.708 119.175 97.2661 119.026 97.9608 119.026C98.4536 119.026 98.9018 119.086 99.3026 119.205C99.7034 119.324 99.9587 119.401 100.069 119.436V139.234H95.6601V120.973Z" fill="black"/>
<path d="M116.144 139.154C116.034 139.189 115.787 139.231 115.404 139.279C115.022 139.323 114.541 139.374 113.968 139.43C113.392 139.484 112.736 139.531 111.996 139.567C111.257 139.603 110.477 139.62 109.654 139.62C108.268 139.62 107.116 139.496 106.205 139.249C105.293 139.002 104.56 138.669 104.014 138.247C103.468 137.828 103.082 137.338 102.865 136.779C102.645 136.22 102.535 135.632 102.535 135.011C102.535 133.328 103.073 132.128 104.15 131.405C105.228 130.683 106.935 130.323 109.271 130.323C109.856 130.323 110.343 130.332 110.735 130.35C111.127 130.368 111.45 130.395 111.709 130.433C111.709 129.794 111.447 129.292 110.928 128.927C110.408 128.561 109.544 128.38 108.339 128.38C107.772 128.38 107.276 128.412 106.846 128.475C106.415 128.54 106.053 128.617 105.75 128.707C105.451 128.799 105.207 128.891 105.023 128.98C104.839 129.072 104.711 129.144 104.64 129.2C104.605 129.164 104.53 129.09 104.421 128.98C104.311 128.87 104.201 128.73 104.091 128.555C103.981 128.383 103.88 128.184 103.788 127.967C103.696 127.747 103.652 127.509 103.652 127.253C103.652 125.663 105.276 124.867 108.526 124.867C109.586 124.867 110.58 124.962 111.513 125.155C112.445 125.348 113.252 125.675 113.935 126.142C114.618 126.608 115.158 127.224 115.55 127.993C115.942 128.76 116.138 129.72 116.138 130.873V139.154H116.144ZM111.735 133.423C111.572 133.388 111.329 133.355 111.011 133.328C110.69 133.302 110.212 133.287 109.574 133.287C109.025 133.287 108.58 133.331 108.232 133.423C107.885 133.516 107.615 133.637 107.425 133.795C107.235 133.953 107.101 134.128 107.027 134.33C106.953 134.532 106.917 134.74 106.917 134.96C106.917 135.124 106.944 135.299 107 135.48C107.054 135.664 107.172 135.828 107.357 135.974C107.538 136.119 107.814 136.244 108.179 136.345C108.544 136.446 109.028 136.497 109.63 136.497C110.105 136.497 110.542 136.482 110.946 136.455C111.346 136.428 111.611 136.396 111.738 136.36V133.423H111.735Z" fill="black"/>
<path d="M118.827 120.973C118.827 120.26 119.038 119.757 119.457 119.466C119.875 119.175 120.433 119.026 121.128 119.026C121.621 119.026 122.063 119.086 122.455 119.205C122.847 119.324 123.099 119.401 123.209 119.436V126.373C123.539 126.044 124.034 125.711 124.702 125.372C125.367 125.033 126.213 124.864 127.234 124.864C128.167 124.864 129.042 125.042 129.865 125.399C130.687 125.755 131.402 126.255 132.014 126.894C132.626 127.533 133.109 128.305 133.466 129.212C133.822 130.115 134 131.126 134 132.241C134 133.337 133.807 134.342 133.424 135.257C133.041 136.173 132.51 136.948 131.836 137.587C131.159 138.226 130.36 138.726 129.44 139.082C128.52 139.439 127.519 139.617 126.442 139.617C125.127 139.617 123.93 139.38 122.856 138.904C121.781 138.429 120.893 137.736 120.199 136.821C119.759 136.235 119.424 135.513 119.187 134.654C118.949 133.795 118.83 132.781 118.83 131.61V120.973H118.827ZM126.332 135.56C127.243 135.56 127.997 135.257 128.591 134.657C129.185 134.054 129.482 133.257 129.482 132.27C129.482 131.283 129.185 130.475 128.591 129.842C127.997 129.212 127.243 128.897 126.332 128.897C125.875 128.897 125.456 128.983 125.073 129.158C124.69 129.331 124.358 129.569 124.073 129.872C123.791 130.172 123.571 130.529 123.417 130.942C123.262 131.352 123.185 131.798 123.185 132.27C123.185 133.293 123.482 134.098 124.076 134.684C124.667 135.269 125.418 135.56 126.332 135.56Z" fill="black"/>
<path d="M1.71713 2.11788L135.701 2.02963" stroke="black" stroke-miterlimit="10"/>
<path d="M68.2855 12.7206C69.4065 12.7206 70.3153 11.8118 70.3153 10.6908C70.3153 9.56982 69.4065 8.66107 68.2855 8.66107C67.1645 8.66107 66.2558 9.56982 66.2558 10.6908C66.2558 11.8118 67.1645 12.7206 68.2855 12.7206Z" fill="black"/>
<path d="M68.3561 99.4857C69.4771 99.4857 70.3859 98.5769 70.3859 97.4559C70.3859 96.3349 69.4771 95.4262 68.3561 95.4262C67.2351 95.4262 66.3264 96.3349 66.3264 97.4559C66.3264 98.5769 67.2351 99.4857 68.3561 99.4857Z" fill="black"/>
<path d="M77.1609 23.0433C78.2819 23.0433 79.1907 22.1345 79.1907 21.0135C79.1907 19.8925 78.2819 18.9838 77.1609 18.9838C76.0399 18.9838 75.1312 19.8925 75.1312 21.0135C75.1312 22.1345 76.0399 23.0433 77.1609 23.0433Z" fill="black"/>
<path d="M59.8765 23.0433C60.9975 23.0433 61.9062 22.1345 61.9062 21.0135C61.9062 19.8925 60.9975 18.9838 59.8765 18.9838C58.7555 18.9838 57.8467 19.8925 57.8467 21.0135C57.8467 22.1345 58.7555 23.0433 59.8765 23.0433Z" fill="black"/>
<path d="M135.696 4.05948C136.817 4.05948 137.726 3.15073 137.726 2.02972C137.726 0.90872 136.817 -3.05176e-05 135.696 -3.05176e-05C134.575 -3.05176e-05 133.666 0.90872 133.666 2.02972C133.666 3.15073 134.575 4.05948 135.696 4.05948Z" fill="black"/>
<path d="M2.02976 4.05951C3.15076 4.05951 4.05951 3.15076 4.05951 2.02975C4.05951 0.908751 3.15076 0 2.02976 0C0.908753 0 0 0.908751 0 2.02975C0 3.15076 0.908753 4.05951 2.02976 4.05951Z" fill="black"/>
<path d="M68.3561 10.6908V97.9047" stroke="black" stroke-miterlimit="10"/>
<path d="M68.3561 10.6908L135.701 2.02963" stroke="black" stroke-miterlimit="10"/>
<path d="M68.3561 10.6908L1.01114 2.02963" stroke="black" stroke-miterlimit="10"/>
<path d="M68.3561 10.6908L76.8862 21.0892" stroke="black" stroke-miterlimit="10"/>
<path d="M68.3561 10.6908L59.816 21.0892" stroke="black" stroke-miterlimit="10"/>
<path d="M68.3561 97.2139L77.1257 21.3817" stroke="black" stroke-miterlimit="10"/>
<path d="M59.816 21.3817L68.3561 97.2139" stroke="black" stroke-miterlimit="10"/>
<path d="M1.71713 2.11788L135.701 2.02963" stroke="black" stroke-miterlimit="10"/>
<path d="M77.1257 21.3818L135.701 2.28947" stroke="black" stroke-miterlimit="10"/>
<path d="M1.71713 2.11788L136.538 2.02963" stroke="black" stroke-miterlimit="10"/>
<path d="M2.80887 2.47351L61.0061 21.3818" stroke="black" stroke-miterlimit="10"/>
</svg>
