<svg width="37" height="37" viewBox="0 0 37 37" fill="none" xmlns="http://www.w3.org/2000/svg">
<g clip-path="url(#clip0)">
<path d="M18.5872 32.4227C20.9745 32.4227 22.9097 30.4874 22.9097 28.1001C22.9097 25.7128 20.9745 23.7776 18.5872 23.7776C16.1999 23.7776 14.2646 25.7128 14.2646 28.1001C14.2646 30.4874 16.1999 32.4227 18.5872 32.4227Z" fill="#4A56E2"/>
<path d="M28.9181 17.6857C28.8539 17.6198 28.7862 17.561 28.7203 17.5004L28.5261 17.3169C28.494 17.2831 28.4584 17.2581 28.4174 17.226C22.828 12.148 14.2738 12.3494 8.93921 17.684L8.31381 18.3111L7.44788 19.1771C6.39308 20.2319 6.39842 21.9513 7.45501 23.0079C8.51337 24.068 10.2328 24.0698 11.2858 23.015L12.7789 21.5219C16.1714 18.1312 21.6895 18.1312 25.0802 21.5201L26.1581 22.5642C27.2022 23.6083 28.9056 23.6065 29.9551 22.5553C30.4629 22.0493 30.7426 21.374 30.7444 20.6559C30.7462 19.9414 30.47 19.2662 29.9622 18.7619L28.9181 17.6857Z" fill="#4A56E2"/>
<path d="M36.2819 12.3422L35.3839 11.4442C35.3804 11.4407 35.3786 11.4353 35.3715 11.4335L34.6623 10.7208C34.5376 10.5979 34.4022 10.491 34.2596 10.3983C25.1495 2.40003 11.2928 2.64591 2.47307 11.1306C2.43031 11.1698 2.3822 11.1966 2.33944 11.2393L0.71804 12.8625C-0.24411 13.8229 -0.238765 15.3855 0.72873 16.353C1.69444 17.3187 3.25705 17.3258 4.2192 16.3619L5.8406 14.7423C5.85129 14.728 5.8602 14.7155 5.87089 14.7066C13.0033 7.81658 24.3174 7.77382 31.5068 14.5659L32.7826 15.8434C33.7429 16.8038 35.3091 16.8002 36.2748 15.8345C37.2387 14.867 37.2423 13.3026 36.2819 12.3422Z" fill="#4A56E2"/>
</g>
<defs>
<clipPath id="clip0">
<rect width="37" height="37" fill="white"/>
</clipPath>
</defs>
</svg>
