<svg width="25" height="20" viewBox="0 0 25 20" fill="none" xmlns="http://www.w3.org/2000/svg">
<path d="M19.983 11.5219C19.6392 11.5219 19.3005 11.3904 19.0375 11.1275C15.4275 7.52251 9.56236 7.52251 5.95229 11.1275C5.43151 11.6483 4.58208 11.6483 4.0613 11.1275C3.54052 10.6067 3.54052 9.75732 4.0613 9.23654C8.71293 4.5849 16.2769 4.5849 20.9285 9.23654C21.4493 9.75732 21.4493 10.6067 20.9285 11.1275C20.6656 11.3904 20.3218 11.5219 19.983 11.5219Z" fill="black"/>
<path d="M16.3629 15.137C16.0191 15.137 15.6803 15.0056 15.4174 14.7427C14.6388 13.964 13.5972 13.5342 12.495 13.5342C11.3927 13.5342 10.3512 13.964 9.57253 14.7427C9.05175 15.2634 8.20232 15.2634 7.68154 14.7427C7.16076 14.2219 7.16076 13.3724 7.68154 12.8517C8.9658 11.5674 10.6748 10.8596 12.495 10.8596C14.3152 10.8596 16.0241 11.5674 17.3084 12.8567C17.8292 13.3775 17.8292 14.2269 17.3084 14.7477C17.0505 15.0056 16.7067 15.137 16.3629 15.137Z" fill="black"/>
<path d="M12.4949 19.455C13.4806 19.455 14.2797 18.6559 14.2797 17.6701C14.2797 16.6844 13.4806 15.8853 12.4949 15.8853C11.5092 15.8853 10.7101 16.6844 10.7101 17.6701C10.7101 18.6559 11.5092 19.455 12.4949 19.455Z" fill="black"/>
<path d="M23.6589 7.84609C23.315 7.84609 22.9763 7.71463 22.7134 7.45171C17.0758 1.81919 7.9141 1.81919 2.28158 7.45171C1.76079 7.9725 0.911366 7.9725 0.390586 7.45171C-0.130195 6.93093 -0.130195 6.08151 0.390586 5.56073C3.6265 2.32481 7.92421 0.545052 12.5 0.545052C17.0758 0.545052 21.3735 2.32481 24.6094 5.56073C25.1302 6.08151 25.1302 6.93093 24.6094 7.45171C24.3414 7.71463 23.9976 7.84609 23.6589 7.84609Z" fill="black"/>
</svg>
